<svg width="16" height="16" viewBox="0 0 16 16" fill="none" xmlns="http://www.w3.org/2000/svg">
<g id="Group">
<g id="Clip path group">
<mask id="mask0_1079_10932" style="mask-type:luminance" maskUnits="userSpaceOnUse" x="0" y="0" width="17" height="17">
<g id="SVGID_00000047060517552920503190000013648074216462321307_">
<path id="Vector" d="M8.00085 16.0017C12.4196 16.0017 16.0017 12.4196 16.0017 8.00085C16.0017 3.5821 12.4196 0 8.00085 0C3.5821 0 0 3.5821 0 8.00085C0 12.4196 3.5821 16.0017 8.00085 16.0017Z" fill="white"/>
</g>
</mask>
<g mask="url(#mask0_1079_10932)">
<g id="Group_2">
<path id="Vector_2" d="M-0.70143 8.35667C-0.70143 5.50782 -0.70143 2.65728 -0.703125 -0.191573C-0.703125 -0.254279 -0.689567 -0.269531 -0.625167 -0.269531C2.25758 -0.267837 5.14202 -0.267837 8.02476 -0.267837C8.02476 -0.228858 8.02476 -0.188184 8.02476 -0.149205C8.02646 0.172795 8.02815 0.4931 8.02985 0.8151C8.02815 0.984573 8.02476 1.15235 8.02476 1.32183C8.02646 1.51672 8.01629 1.70992 8.02985 1.90481C8.01968 2.24715 8.02137 2.58949 8.02815 2.93352C8.02646 3.08605 8.02307 3.23688 8.02307 3.3894C8.02307 3.61819 8.02646 3.84529 8.02815 4.07408C8.01968 4.41641 8.01799 4.75875 8.02815 5.10109C8.01629 5.46376 8.01968 5.82813 8.02646 6.1908C8.01798 6.53483 8.01798 6.87717 8.02646 7.2212C8.02476 7.25171 8.02137 7.28221 8.02137 7.31272C8.02137 7.66014 8.02137 8.00586 8.02137 8.35328C7.97901 8.35498 7.93664 8.35837 7.89427 8.35837C6.3707 8.35837 4.84713 8.35837 3.32357 8.35837C1.98473 8.35837 0.6408 8.35667 -0.70143 8.35667ZM1.35259 6.29588C1.46783 6.21453 1.58307 6.13488 1.69493 6.04844C1.74068 6.01455 1.77119 6.00946 1.81864 6.04675C1.93219 6.13318 2.05252 6.21283 2.18301 6.30604C2.13725 6.14504 2.10166 6.00438 2.0559 5.86541C2.03896 5.81457 2.05421 5.79084 2.09319 5.76203C2.20843 5.67899 2.32028 5.59087 2.44908 5.49257C2.27961 5.49257 2.13217 5.49088 1.98642 5.49427C1.93897 5.49596 1.91694 5.48071 1.90338 5.43495C1.85932 5.29598 1.81186 5.15871 1.75763 4.9994C1.71865 5.11803 1.68476 5.21802 1.65086 5.31801C1.59155 5.49427 1.59155 5.49427 1.40852 5.49427C1.30175 5.49427 1.19498 5.49427 1.06618 5.49427C1.20006 5.59595 1.31192 5.68069 1.42546 5.76542C1.46275 5.79254 1.47631 5.81627 1.45936 5.86372C1.42038 5.98065 1.38987 6.10098 1.35598 6.22131C1.3492 6.24503 1.32886 6.27215 1.35259 6.29588C1.35089 6.29418 1.34751 6.29079 1.34581 6.2874C1.34412 6.29079 1.34073 6.29249 1.33903 6.29588C1.34242 6.29588 1.34751 6.29588 1.35259 6.29588ZM0.0612008 7.91774C0.181527 7.84995 0.291685 7.76521 0.400148 7.68217C0.456074 7.63811 0.493358 7.64319 0.545895 7.68386C0.654358 7.7686 0.7696 7.84486 0.8984 7.93638C0.852642 7.77538 0.815358 7.63302 0.771295 7.49405C0.756042 7.44491 0.766211 7.41949 0.80519 7.39068C0.920432 7.30763 1.03228 7.21951 1.16278 7.11952C0.991611 7.11952 0.842474 7.11782 0.695032 7.12121C0.650969 7.12121 0.632327 7.10765 0.618769 7.06529C0.574706 6.92462 0.525558 6.78396 0.473022 6.62635C0.434043 6.74329 0.400148 6.84328 0.366253 6.94326C0.308632 7.11952 0.308632 7.11952 0.123906 7.11952C0.0171376 7.11952 -0.0896307 7.11952 -0.218431 7.11952C-0.0981044 7.21103 -0.0031991 7.29238 0.10018 7.35848C0.178138 7.40932 0.188306 7.46016 0.16119 7.5449C0.122211 7.66692 0.073064 7.78724 0.066285 7.91604C0.0628955 7.91604 0.0595061 7.91435 0.0544218 7.91435C0.0544218 7.91604 0.0544218 7.91943 0.0544218 7.92113C0.0544218 7.92282 0.0578113 7.91943 0.0612008 7.91774ZM2.35248 7.12121C2.48637 7.2229 2.59653 7.30933 2.71007 7.39237C2.75075 7.42118 2.75922 7.44999 2.74397 7.49914C2.6999 7.6398 2.66262 7.78216 2.61856 7.93807C2.74397 7.84995 2.8609 7.77538 2.96767 7.68895C3.02868 7.6398 3.06936 7.64658 3.12698 7.69234C3.23375 7.77538 3.34729 7.84995 3.47101 7.93807C3.42695 7.78555 3.39305 7.64997 3.34899 7.51609C3.32696 7.44999 3.3439 7.4161 3.39814 7.37881C3.5066 7.30255 3.61167 7.21781 3.73708 7.12291C3.56761 7.12291 3.42525 7.11952 3.2812 7.1246C3.22527 7.1263 3.20324 7.10765 3.18799 7.05512C3.14731 6.91954 3.09817 6.78565 3.04563 6.63143C2.9914 6.79074 2.94225 6.92632 2.89988 7.06529C2.88463 7.11274 2.86429 7.1263 2.81684 7.1246C2.6694 7.11952 2.52365 7.12121 2.35248 7.12121ZM6.29105 7.13816C6.28935 7.13308 6.28596 7.12799 6.28427 7.12121C6.147 7.12121 6.00803 7.11613 5.87075 7.12291C5.79958 7.1263 5.77246 7.09918 5.75382 7.03648C5.71484 6.90598 5.66908 6.77888 5.61824 6.62804C5.5674 6.78226 5.52164 6.91106 5.48097 7.04156C5.46232 7.10087 5.4369 7.1263 5.36911 7.1246C5.23014 7.11782 5.08948 7.12291 4.92509 7.12291C5.05898 7.22459 5.17083 7.31102 5.28607 7.39576C5.32336 7.42287 5.33352 7.4466 5.31827 7.49405C5.27421 7.63641 5.23692 7.78046 5.19117 7.93977C5.31997 7.84825 5.4386 7.7686 5.54875 7.68217C5.60129 7.6415 5.63688 7.64489 5.68772 7.68386C5.79958 7.7703 5.91651 7.84825 6.04362 7.93807C5.99955 7.78216 5.96227 7.63811 5.91651 7.49575C5.89957 7.44491 5.91312 7.41949 5.9521 7.39068C6.06734 7.30933 6.1792 7.2229 6.29105 7.13816ZM0.8984 4.68079C0.854337 4.52657 0.820442 4.39099 0.774684 4.2588C0.752653 4.19271 0.7696 4.15881 0.823832 4.12153C0.93399 4.04527 1.03906 3.96053 1.16278 3.86562C0.996695 3.86562 0.850948 3.86393 0.7052 3.86732C0.656053 3.86901 0.632327 3.85546 0.615379 3.80461C0.573011 3.66565 0.523864 3.52668 0.471327 3.37246C0.420485 3.52329 0.371337 3.66056 0.328969 3.79953C0.313716 3.85037 0.28999 3.86901 0.235759 3.86732C0.0917061 3.86223 -0.0540412 3.86562 -0.218431 3.86562C-0.0879359 3.96561 0.0239166 4.05204 0.137464 4.13339C0.178138 4.1622 0.188306 4.18932 0.173053 4.23847C0.12899 4.37913 0.091706 4.52149 0.0476429 4.6791C0.181527 4.58419 0.301853 4.50115 0.41879 4.41302C0.459464 4.38252 0.488274 4.38421 0.528948 4.41472C0.642495 4.50454 0.762821 4.58589 0.8984 4.68079ZM3.47101 4.68249C3.43203 4.54182 3.40491 4.41811 3.35916 4.30117C3.32357 4.20457 3.3439 4.15034 3.43034 4.09611C3.53202 4.0334 3.62354 3.95206 3.73369 3.86732C3.5693 3.86732 3.42864 3.86393 3.28798 3.86901C3.22527 3.87071 3.19985 3.85037 3.1829 3.79106C3.14223 3.65717 3.09478 3.52498 3.04394 3.37246C2.9914 3.52837 2.94395 3.65887 2.90497 3.79275C2.88802 3.85376 2.85921 3.87071 2.7982 3.86732C2.65584 3.86223 2.51518 3.86562 2.35248 3.86562C2.48467 3.96561 2.59483 4.05204 2.70838 4.13339C2.74905 4.1622 2.75922 4.18932 2.74397 4.23847C2.6999 4.37913 2.66262 4.52318 2.61856 4.6791C2.74736 4.58758 2.86599 4.50793 2.98123 4.4215C3.02699 4.3876 3.05749 4.38252 3.10495 4.4198C3.22019 4.50793 3.33882 4.58758 3.47101 4.68249ZM4.33193 5.0011C4.28109 5.15193 4.23195 5.27734 4.19636 5.40614C4.17602 5.48071 4.14043 5.50104 4.06586 5.49596C3.93198 5.48918 3.79809 5.49427 3.64048 5.49427C3.76928 5.59256 3.87944 5.67899 3.99299 5.76034C4.03536 5.79084 4.04891 5.81796 4.03027 5.87219C3.98451 6.01116 3.94892 6.15352 3.90486 6.30943C4.03875 6.21453 4.15907 6.13149 4.2777 6.04336C4.32007 6.01116 4.34719 6.01455 4.38786 6.04505C4.5048 6.13318 4.62512 6.21453 4.75562 6.30774C4.72342 6.19419 4.6963 6.0942 4.66919 5.99421C4.61665 5.80271 4.61665 5.80271 4.77596 5.68069C4.85222 5.62307 4.92679 5.56375 5.02 5.49257C4.84713 5.49257 4.69969 5.49088 4.55395 5.49427C4.50988 5.49427 4.49124 5.4824 4.47768 5.43834C4.43701 5.29937 4.38786 5.1621 4.33193 5.0011ZM6.21479 5.49427C6.34528 5.59256 6.45544 5.67899 6.56899 5.76034C6.61305 5.79084 6.62322 5.81796 6.60627 5.87219C6.56221 6.01116 6.52492 6.15352 6.48086 6.30943C6.61474 6.21453 6.73676 6.13318 6.8537 6.04505C6.89607 6.01285 6.92319 6.01624 6.96386 6.04675C7.0808 6.13488 7.20112 6.21792 7.33331 6.31113C7.29094 6.1603 7.25366 6.02133 7.21129 5.88575C7.19095 5.82474 7.20112 5.79084 7.25535 5.75356C7.36721 5.6773 7.47228 5.59087 7.59939 5.49596C7.44177 5.49596 7.30789 5.48918 7.1774 5.49765C7.09266 5.50274 7.06046 5.47054 7.03843 5.39428C7.00284 5.26887 6.95708 5.14684 6.90624 5.0011C6.85201 5.1604 6.80455 5.29429 6.76219 5.42987C6.74693 5.47901 6.7266 5.49596 6.67406 5.49427C6.53001 5.49257 6.38426 5.49427 6.21479 5.49427ZM2.1847 3.05385C2.13895 2.89454 2.10336 2.75388 2.0576 2.6166C2.04065 2.56407 2.05252 2.53695 2.09488 2.50645C2.20843 2.4251 2.31689 2.33867 2.44739 2.24037C2.283 2.24037 2.14403 2.23529 2.00506 2.24207C1.93897 2.24546 1.91355 2.22004 1.8949 2.16072C1.85593 2.02853 1.80847 1.89804 1.75763 1.74551C1.70509 1.90312 1.65595 2.04039 1.61358 2.17936C1.59833 2.22851 1.5746 2.24376 1.52376 2.24207C1.37801 2.23868 1.23396 2.24037 1.06618 2.24037C1.19159 2.33528 1.29497 2.42001 1.40682 2.49628C1.46444 2.53526 1.47292 2.57254 1.45258 2.63694C1.40852 2.76913 1.37462 2.9064 1.33225 3.05554C1.46614 2.96064 1.58816 2.8759 1.70679 2.78777C1.74407 2.75896 1.77119 2.75896 1.81017 2.78777C1.9271 2.87251 2.04743 2.95555 2.1847 3.05385ZM1.15939 0.613426C0.991611 0.613426 0.845863 0.611731 0.700116 0.615121C0.652664 0.616816 0.630632 0.601563 0.617074 0.555805C0.573011 0.415142 0.523864 0.276174 0.469632 0.118563C0.41879 0.2677 0.369643 0.398195 0.330664 0.533774C0.312022 0.601563 0.278127 0.61851 0.212032 0.615121C0.0764534 0.610037 -0.0608202 0.613426 -0.220125 0.613426C-0.0896307 0.710026 0.0188324 0.796458 0.130685 0.87611C0.178138 0.910005 0.184917 0.94051 0.167969 0.994742C0.123906 1.13032 0.0900113 1.26929 0.0459482 1.4252C0.178138 1.33199 0.29338 1.25234 0.405232 1.1676C0.452685 1.13202 0.486579 1.12863 0.535727 1.16591C0.647579 1.25404 0.764516 1.33199 0.8984 1.4252C0.852642 1.2642 0.815358 1.12693 0.77299 0.991352C0.757737 0.942205 0.762821 0.9117 0.808579 0.8795C0.920432 0.798152 1.03059 0.711721 1.15939 0.613426ZM6.31139 3.86732C6.15717 3.86732 6.02667 3.85885 5.89787 3.87071C5.80466 3.87918 5.77077 3.8419 5.74873 3.75886C5.71484 3.63683 5.66908 3.5182 5.61993 3.37585C5.5657 3.53515 5.51656 3.67073 5.47588 3.80631C5.46063 3.85715 5.4369 3.87071 5.38606 3.86901C5.24031 3.86562 5.09626 3.86732 4.92848 3.86732C5.05728 3.96392 5.16574 4.04866 5.2759 4.13C5.31997 4.1622 5.33691 4.18932 5.31827 4.24863C5.27251 4.38591 5.23692 4.52827 5.19456 4.68249C5.32505 4.59097 5.44538 4.50962 5.56231 4.4215C5.60638 4.3893 5.63688 4.3876 5.67925 4.4215C5.79619 4.50793 5.91482 4.59097 6.04701 4.68418C6.00294 4.52827 5.96735 4.3876 5.9216 4.24863C5.90295 4.19101 5.91821 4.1639 5.96396 4.1317C6.07412 4.04866 6.18259 3.96392 6.31139 3.86732ZM2.35587 0.613426C2.48637 0.713416 2.59653 0.798152 2.71007 0.881194C2.75075 0.910005 2.76091 0.937121 2.74566 0.986268C2.7016 1.12693 2.66431 1.26929 2.62025 1.4269C2.74566 1.33708 2.8609 1.26082 2.96937 1.17608C3.02529 1.13371 3.06427 1.13202 3.12189 1.17438C3.23036 1.25912 3.3456 1.33538 3.4727 1.4269C3.43203 1.28624 3.40661 1.16422 3.36255 1.05067C3.32357 0.950679 3.3456 0.894752 3.43372 0.838826C3.53371 0.776121 3.62354 0.698163 3.73369 0.613426C3.56591 0.613426 3.42186 0.611731 3.27781 0.615121C3.22527 0.616816 3.20494 0.599868 3.18968 0.550721C3.14731 0.411753 3.09817 0.276174 3.04563 0.118563C2.99479 0.269395 2.94564 0.399889 2.90836 0.533774C2.88971 0.601563 2.85582 0.61851 2.78973 0.616816C2.65415 0.608342 2.51857 0.613426 2.35587 0.613426ZM6.30969 0.611731C6.15039 0.611731 6.0165 0.604952 5.88601 0.613426C5.80466 0.61851 5.77415 0.5897 5.75212 0.515131C5.71653 0.388026 5.66908 0.264311 5.61993 0.116869C5.57079 0.262616 5.51994 0.382942 5.48944 0.506658C5.46741 0.598173 5.42165 0.616816 5.33691 0.613426C5.20981 0.606647 5.08101 0.611731 4.93018 0.611731C5.05898 0.710026 5.16913 0.796458 5.28268 0.8795C5.32166 0.90831 5.33522 0.932037 5.31997 0.984573C5.27421 1.12524 5.23862 1.26929 5.19286 1.4269C5.32674 1.33199 5.44877 1.24726 5.5674 1.15913C5.60468 1.13032 5.6318 1.13032 5.67078 1.15913C5.78941 1.24726 5.91143 1.33199 6.04531 1.4269C6.00125 1.26929 5.96397 1.12524 5.91821 0.984573C5.90126 0.932037 5.91651 0.90831 5.95549 0.881194C6.06734 0.798152 6.1792 0.711721 6.30969 0.611731ZM4.33193 1.74551C4.28109 1.89973 4.23195 2.03023 4.19297 2.16411C4.17432 2.22681 4.14382 2.24546 4.07942 2.24207C3.94045 2.23698 3.80148 2.24037 3.64048 2.24037C3.76928 2.33697 3.87605 2.4234 3.9879 2.50136C4.03875 2.53695 4.04552 2.56915 4.02688 2.62677C3.98282 2.76235 3.94723 2.90132 3.90486 3.05385C4.03875 2.95894 4.16077 2.8759 4.2777 2.78777C4.32007 2.75557 4.34719 2.75896 4.38786 2.78947C4.4709 2.85217 4.55733 2.91149 4.64207 2.9708C4.6641 2.98606 4.68444 3.02165 4.71325 3.00131C4.73359 2.98606 4.72681 2.94877 4.72003 2.92166C4.69122 2.81828 4.6658 2.7149 4.6319 2.61321C4.61496 2.56407 4.62512 2.53695 4.6658 2.50814C4.78104 2.4251 4.8912 2.33867 5.02339 2.23868C4.85561 2.23868 4.71325 2.23529 4.57089 2.24037C4.51497 2.24207 4.49293 2.22343 4.47768 2.17258C4.43362 2.037 4.38617 1.90312 4.33193 1.74551ZM7.33331 3.05554C7.28925 2.90301 7.25535 2.76913 7.21129 2.63864C7.18926 2.57085 7.20112 2.53356 7.26044 2.49289C7.3689 2.41832 7.47228 2.33358 7.596 2.24037C7.4333 2.24037 7.29603 2.23698 7.15875 2.24207C7.09435 2.24546 7.06385 2.22512 7.04521 2.16241C7.00623 2.03023 6.95878 1.89973 6.90624 1.74381C6.8537 1.89973 6.80794 2.02853 6.76896 2.16072C6.75032 2.22004 6.7249 2.24546 6.65881 2.24207C6.51984 2.23529 6.37918 2.24037 6.21648 2.24037C6.3402 2.33358 6.44019 2.41832 6.55034 2.49119C6.61644 2.53356 6.62152 2.57763 6.59949 2.64372C6.55712 2.77421 6.52153 2.9064 6.47916 3.05385C6.60966 2.96064 6.72999 2.88268 6.84353 2.79455C6.89437 2.75557 6.92827 2.76066 6.97403 2.79625C7.08588 2.88268 7.20282 2.96064 7.33331 3.05554Z" fill="#012767"/>
<path id="Vector_3" d="M-0.70166 12.7461C-0.70166 12.3681 -0.70166 11.9885 -0.70166 11.6106C-0.654208 11.6106 -0.606755 11.6106 -0.557608 11.6106C8.43297 11.6106 17.4218 11.6106 26.4124 11.6106C26.4124 11.9885 26.4124 12.3681 26.4124 12.7461C26.3751 12.7461 26.3395 12.7461 26.3023 12.7461C24.7668 12.7461 23.2297 12.7461 21.6943 12.7461C14.229 12.7461 6.76365 12.7461 -0.70166 12.7461Z" fill="#FEFDFE"/>
<path id="Vector_4" d="M26.4107 14.9136C26.4107 15.2576 26.409 15.6033 26.4124 15.9474C26.4124 15.9897 26.4023 16.0067 26.3599 15.9982C26.3514 15.9965 26.3429 15.9982 26.3345 15.9982C17.3219 15.9982 8.31095 15.9982 -0.70166 15.9982C-0.70166 15.6372 -0.70166 15.2746 -0.70166 14.9136C8.33637 14.9136 17.3727 14.9136 26.4107 14.9136Z" fill="#BC0B31"/>
<path id="Vector_5" d="M-0.70166 8.35666C0.640571 8.35666 1.9845 8.35836 3.32673 8.35836C4.85029 8.35836 6.37386 8.35836 7.89743 8.35836C7.9398 8.35836 7.98217 8.35497 8.02453 8.35327C8.05334 8.35497 8.08046 8.35666 8.10927 8.35666C14.2103 8.35666 20.3097 8.35666 26.4107 8.35666C26.4107 8.71764 26.4107 9.08031 26.4107 9.44129C26.3209 9.44129 26.2311 9.44129 26.1413 9.44129C17.1931 9.44129 8.24654 9.44129 -0.70166 9.44129C-0.70166 9.08031 -0.70166 8.71933 -0.70166 8.35666Z" fill="#BC0B31"/>
<path id="Vector_6" d="M-0.70166 9.44141C8.24654 9.44141 17.1931 9.44141 26.1413 9.44141C26.2311 9.44141 26.3209 9.44141 26.4107 9.44141C26.4107 9.80238 26.4107 10.1651 26.4107 10.526C26.3802 10.526 26.3497 10.526 26.3175 10.526C17.31 10.526 8.30417 10.526 -0.70166 10.526C-0.70166 10.1651 -0.70166 9.80238 -0.70166 9.44141Z" fill="#FEFDFE"/>
<path id="Vector_7" d="M-0.70143 10.5259C8.3044 10.5259 17.3119 10.5259 26.3177 10.5259C26.3482 10.5259 26.3788 10.5259 26.411 10.5259C26.411 10.8869 26.411 11.2495 26.411 11.6105C17.4204 11.6105 8.4315 11.6105 -0.559072 11.6105C-0.606525 11.6105 -0.653978 11.6105 -0.703125 11.6105C-0.70143 11.2478 -0.70143 10.8869 -0.70143 10.5259Z" fill="#BC0B31"/>
<path id="Vector_8" d="M-0.70166 12.7461C6.76365 12.7461 14.229 12.7461 21.6943 12.7461C23.2297 12.7461 24.7668 12.7461 26.3023 12.7461C26.3395 12.7461 26.3751 12.7461 26.4124 12.7461C26.4124 13.1071 26.4124 13.4697 26.4124 13.8307C25.5481 13.8307 24.6855 13.8307 23.8212 13.8307C15.6475 13.8307 7.47375 13.8307 -0.699965 13.8307C-0.70166 13.4681 -0.70166 13.1071 -0.70166 12.7461Z" fill="#BC0B31"/>
<path id="Vector_9" d="M-0.70166 13.8289C7.47205 13.8289 15.6458 13.8289 23.8195 13.8289C24.6838 13.8289 25.5464 13.8289 26.4107 13.8289C26.4107 14.1898 26.4107 14.5525 26.4107 14.9135C17.3727 14.9135 8.33636 14.9135 -0.70166 14.9135C-0.70166 14.5525 -0.70166 14.1915 -0.70166 13.8289Z" fill="#FEFDFE"/>
<path id="Vector_10" d="M8.03145 4.07244C8.02976 3.84365 8.02637 3.61656 8.02637 3.38777C8.02637 3.23524 8.02976 3.08441 8.03145 2.93188C8.05687 2.93358 8.08229 2.93527 8.10771 2.93527C14.2088 2.93527 20.3098 2.93527 26.4126 2.93527C26.4126 3.3132 26.4126 3.69282 26.4126 4.07075C26.3753 4.07075 26.3397 4.07075 26.3024 4.07075C20.2522 4.07075 14.202 4.07075 8.15008 4.07075C8.1111 4.07075 8.07043 4.07244 8.03145 4.07244Z" fill="#FEFDFE"/>
<path id="Vector_11" d="M26.4111 8.35666C20.31 8.35666 14.2107 8.35666 8.10964 8.35666C8.08083 8.35666 8.05371 8.35497 8.0249 8.35327C8.0249 8.00585 8.0249 7.66013 8.0249 7.31271C8.0249 7.2822 8.02829 7.2517 8.02999 7.22119C8.05541 7.22119 8.08083 7.22289 8.10625 7.22289C14.2073 7.22289 20.3083 7.22289 26.4094 7.22289C26.4111 7.60081 26.4111 7.97874 26.4111 8.35666Z" fill="#FEFDFE"/>
<path id="Vector_12" d="M8.03135 1.9049C8.0161 1.71001 8.02627 1.51681 8.02627 1.32191C8.02457 1.15244 8.02966 0.984659 8.03135 0.815186C8.06864 0.815186 8.10423 0.81688 8.14151 0.81688C14.2324 0.81688 20.3216 0.81688 26.4125 0.81688C26.4125 1.17786 26.4125 1.54053 26.4125 1.90151C26.3396 1.90151 26.2667 1.90151 26.1921 1.90151C20.1792 1.90151 14.1646 1.90151 8.15168 1.90151C8.11101 1.90151 8.07203 1.90321 8.03135 1.9049Z" fill="#FEFDFE"/>
<path id="Vector_13" d="M8.03168 6.19079C8.02321 5.82812 8.02151 5.46375 8.03338 5.10107C8.06219 5.10277 8.0893 5.10446 8.11811 5.10446C14.2158 5.10446 20.3151 5.10446 26.4128 5.10446C26.4128 5.46544 26.4128 5.82812 26.4128 6.18909C26.3687 6.18909 26.323 6.18909 26.2789 6.18909C20.6964 6.18909 15.1157 6.18909 9.53322 6.18909C9.02988 6.1874 8.52993 6.18909 8.03168 6.19079Z" fill="#FEFDFE"/>
<path id="Vector_14" d="M26.4111 0.816794C20.3202 0.816794 14.231 0.816794 8.14014 0.816794C8.10286 0.816794 8.06727 0.8151 8.02999 0.8151C8.02829 0.4931 8.0266 0.172795 8.0249 -0.149205C8.0249 -0.188184 8.0249 -0.228858 8.0249 -0.267837C14.1276 -0.267837 20.2304 -0.267837 26.3348 -0.269531C26.3975 -0.269531 26.4128 -0.255973 26.4128 -0.191573C26.4094 0.145679 26.4111 0.481237 26.4111 0.816794Z" fill="#BC0B31"/>
<path id="Vector_15" d="M8.03149 1.90476C8.07047 1.90306 8.11114 1.90137 8.15012 1.90137C14.163 1.90137 20.1777 1.90137 26.1906 1.90137C26.2635 1.90137 26.3363 1.90137 26.4109 1.90137C26.4109 2.2454 26.4109 2.59112 26.4109 2.93516C20.3098 2.93516 14.2088 2.93516 8.10606 2.93516C8.08063 2.93516 8.05521 2.93346 8.02979 2.93177C8.02471 2.58943 8.02132 2.24709 8.03149 1.90476Z" fill="#BC0B31"/>
<path id="Vector_16" d="M26.4108 5.10459C20.3132 5.10459 14.2138 5.10459 8.11616 5.10459C8.08735 5.10459 8.06023 5.1029 8.03142 5.1012C8.02125 4.75886 8.02295 4.41653 8.03142 4.07419C8.0704 4.0725 8.11107 4.0708 8.15005 4.0708C14.2003 4.0708 20.2505 4.0708 26.3024 4.0708C26.3397 4.0708 26.3752 4.0708 26.4125 4.0708C26.4108 4.41483 26.4108 4.75886 26.4108 5.10459Z" fill="#BC0B31"/>
<path id="Vector_17" d="M8.03175 6.1909C8.53169 6.18921 9.03164 6.18921 9.53159 6.18921C15.114 6.18921 20.6948 6.18921 26.2773 6.18921C26.3213 6.18921 26.3671 6.18921 26.4112 6.18921C26.4112 6.53324 26.4112 6.87897 26.4112 7.223C20.3101 7.223 14.2091 7.223 8.10801 7.223C8.08259 7.223 8.05717 7.2213 8.03175 7.2213C8.02327 6.87727 8.02327 6.53324 8.03175 6.1909Z" fill="#BC0B31"/>
<path id="Vector_18" d="M2.35254 7.12111C2.52371 7.12111 2.66945 7.11942 2.8152 7.12281C2.86265 7.1245 2.88469 7.11094 2.89824 7.06349C2.94061 6.92452 2.98976 6.78894 3.04399 6.62964C3.09653 6.78555 3.14568 6.91774 3.18635 7.05332C3.2016 7.10586 3.22533 7.1245 3.27956 7.12281C3.42192 7.11942 3.56597 7.12111 3.73544 7.12111C3.61003 7.21602 3.50496 7.30075 3.3965 7.37702C3.34226 7.4143 3.32532 7.4482 3.34735 7.51429C3.39311 7.64648 3.42531 7.78375 3.46937 7.93628C3.34565 7.84815 3.23211 7.77358 3.12534 7.69054C3.06772 7.64478 3.02704 7.63801 2.96603 7.68715C2.85927 7.77359 2.74233 7.84815 2.61692 7.93628C2.66098 7.78206 2.69827 7.63801 2.74233 7.49734C2.75758 7.4482 2.74911 7.42108 2.70843 7.39057C2.59658 7.30923 2.48642 7.2228 2.35254 7.12111Z" fill="#FEFDFE"/>
<path id="Vector_19" d="M6.29102 7.13806C6.17917 7.2228 6.06731 7.30923 5.95377 7.39227C5.91479 7.42108 5.90123 7.4465 5.91818 7.49734C5.96394 7.63801 6.00122 7.78206 6.04528 7.93967C5.91818 7.84985 5.80124 7.7702 5.68939 7.68546C5.63855 7.64648 5.60296 7.64309 5.55042 7.68376C5.43857 7.7702 5.32163 7.84815 5.19283 7.94136C5.23689 7.78206 5.27418 7.63801 5.31994 7.49565C5.33519 7.4482 5.32502 7.42447 5.28774 7.39735C5.17249 7.31262 5.06064 7.22619 4.92676 7.1245C5.09115 7.1245 5.23181 7.12111 5.37078 7.1262C5.43687 7.12959 5.46399 7.10247 5.48263 7.04315C5.52161 6.91266 5.56737 6.78386 5.6199 6.62964C5.67075 6.78047 5.7165 6.90927 5.75548 7.03807C5.77413 7.10077 5.79955 7.12959 5.87242 7.1245C6.00969 7.11772 6.14697 7.12281 6.28594 7.12281C6.28594 7.1262 6.28933 7.13128 6.29102 7.13806Z" fill="#FEFDFE"/>
<path id="Vector_20" d="M0.0630359 7.91933C0.0715096 7.78884 0.118962 7.66851 0.157941 7.54819C0.185057 7.46345 0.174888 7.41091 0.0969306 7.36176C-0.00644827 7.29567 -0.101353 7.21432 -0.22168 7.12281C-0.0928798 7.12281 0.0138886 7.12281 0.120657 7.12281C0.305383 7.12281 0.305383 7.12281 0.363004 6.94655C0.396899 6.84487 0.430794 6.74488 0.469773 6.62964C0.522309 6.78725 0.571457 6.92622 0.61552 7.06858C0.629078 7.11094 0.64772 7.1262 0.691783 7.1245C0.84092 7.12281 0.988362 7.12281 1.15953 7.12281C1.02904 7.2228 0.917183 7.30923 0.801941 7.39396C0.761267 7.42277 0.751099 7.4482 0.768046 7.49734C0.812109 7.63631 0.849393 7.77697 0.895151 7.93967C0.766351 7.84815 0.652804 7.77189 0.542646 7.68715C0.490109 7.64648 0.45452 7.6414 0.396899 7.68546C0.288436 7.7685 0.178278 7.85324 0.0579517 7.92103L0.0630359 7.91933Z" fill="#FEFDFE"/>
<path id="Vector_21" d="M0.898311 4.68068C0.764427 4.58577 0.6441 4.50443 0.527164 4.418C0.48649 4.38749 0.457679 4.38579 0.417006 4.4163C0.300069 4.50443 0.179743 4.58747 0.0458587 4.68237C0.0899218 4.52476 0.128901 4.38071 0.171269 4.24174C0.186522 4.1926 0.176353 4.16548 0.13568 4.13667C0.0221324 4.05363 -0.0897202 3.9672 -0.220215 3.8689C-0.0541307 3.8689 0.0899218 3.86551 0.233974 3.8706C0.289901 3.87229 0.311932 3.85365 0.327185 3.80281C0.369553 3.66384 0.418701 3.52656 0.469543 3.37573C0.522079 3.52995 0.571227 3.66723 0.613595 3.80789C0.628848 3.85873 0.652574 3.8706 0.703416 3.8706C0.849163 3.86721 0.993216 3.8689 1.16099 3.8689C1.03728 3.96381 0.932205 4.04685 0.822048 4.12481C0.769511 4.16209 0.750869 4.19598 0.7729 4.26208C0.820353 4.39088 0.854248 4.52646 0.898311 4.68068Z" fill="#FEFDFE"/>
<path id="Vector_22" d="M3.47106 4.6826C3.33888 4.58939 3.21855 4.50974 3.105 4.42161C3.05755 4.38433 3.02704 4.38941 2.98129 4.42331C2.86604 4.50974 2.74741 4.59109 2.61861 4.68091C2.66268 4.52499 2.69996 4.38264 2.74402 4.24028C2.75928 4.18944 2.74911 4.16401 2.70843 4.1352C2.59489 4.05216 2.48303 3.96573 2.35254 3.86744C2.51523 3.86744 2.65759 3.86405 2.79825 3.86913C2.85927 3.87083 2.88638 3.85388 2.90502 3.79456C2.944 3.66068 2.99145 3.52849 3.04399 3.37427C3.09653 3.52849 3.14398 3.65898 3.18296 3.79287C3.19991 3.85049 3.22533 3.87252 3.28803 3.87082C3.4287 3.86574 3.56936 3.86913 3.73375 3.86913C3.62359 3.95387 3.53207 4.03352 3.43039 4.09792C3.34396 4.15215 3.32362 4.20638 3.35921 4.30298C3.40497 4.41822 3.43209 4.54194 3.47106 4.6826Z" fill="#FEFDFE"/>
<path id="Vector_23" d="M1.35282 6.29937C1.32909 6.27226 1.34943 6.24514 1.35621 6.22142C1.38841 6.10278 1.42061 5.98246 1.45958 5.86383C1.47484 5.81637 1.46128 5.79265 1.42569 5.76553C1.31214 5.68249 1.20029 5.59606 1.06641 5.49437C1.19521 5.49437 1.30197 5.49437 1.40874 5.49437C1.59177 5.49437 1.59177 5.49437 1.65109 5.31812C1.68498 5.21813 1.71888 5.11814 1.75786 4.99951C1.81209 5.15882 1.85954 5.29609 1.90361 5.43506C1.91716 5.48082 1.9392 5.49607 1.98665 5.49437C2.13239 5.49099 2.27984 5.49268 2.44931 5.49268C2.32051 5.59097 2.20866 5.67741 2.09342 5.76214C2.05444 5.79095 2.03918 5.81468 2.05613 5.86552C2.1002 6.00449 2.13748 6.14515 2.18324 6.30615C2.05105 6.21294 1.93242 6.13498 1.81887 6.04686C1.77142 6.00957 1.74091 6.01296 1.69515 6.04855C1.5833 6.13329 1.46636 6.21294 1.35282 6.29598V6.29937Z" fill="#FEFDFE"/>
<path id="Vector_24" d="M4.33185 5.00098C4.38608 5.16198 4.43523 5.30094 4.47929 5.43991C4.49285 5.48398 4.51149 5.49584 4.55555 5.49584C4.70299 5.49245 4.84874 5.49414 5.0216 5.49414C4.92839 5.56532 4.85213 5.62294 4.77756 5.68226C4.61656 5.80598 4.61656 5.80598 4.67079 5.99579C4.69791 6.09578 4.72672 6.19577 4.75723 6.30931C4.62673 6.2161 4.50641 6.13475 4.38947 6.04663C4.34879 6.01612 4.32168 6.01273 4.27931 6.04493C4.16237 6.13306 4.04205 6.2161 3.90647 6.31101C3.95053 6.15509 3.98612 6.01273 4.03188 5.87377C4.04883 5.81953 4.03527 5.79242 3.99459 5.76191C3.88105 5.68057 3.77258 5.59413 3.64209 5.49584C3.7997 5.49584 3.93358 5.49076 4.06747 5.49753C4.14204 5.50092 4.17763 5.48228 4.19796 5.40771C4.23355 5.27722 4.28101 5.15011 4.33185 5.00098Z" fill="#FEFDFE"/>
<path id="Vector_25" d="M6.21484 5.49416C6.38432 5.49416 6.53006 5.49246 6.67581 5.49585C6.72835 5.49755 6.74869 5.4806 6.76394 5.43145C6.80631 5.29587 6.85376 5.1603 6.90799 5.00269C6.95714 5.14843 7.00459 5.27045 7.04018 5.39586C7.06221 5.47213 7.09441 5.50433 7.17915 5.49924C7.31134 5.49077 7.44353 5.49755 7.60114 5.49755C7.47403 5.59415 7.36896 5.67889 7.25711 5.75515C7.20287 5.79243 7.19271 5.82633 7.21304 5.88734C7.25711 6.02292 7.2927 6.16188 7.33506 6.31272C7.20287 6.21951 7.08255 6.13477 6.96561 6.04834C6.92494 6.01783 6.89782 6.01444 6.85545 6.04664C6.73852 6.13477 6.6165 6.21781 6.48261 6.31102C6.52667 6.15511 6.56226 6.01444 6.60802 5.87378C6.62497 5.82124 6.6148 5.79413 6.57074 5.76193C6.4555 5.67888 6.34534 5.59245 6.21484 5.49416Z" fill="#FEFDFE"/>
<path id="Vector_26" d="M2.18467 3.05393C2.0474 2.95563 1.92707 2.87259 1.80844 2.78616C1.76946 2.75735 1.74404 2.75904 1.70506 2.78616C1.58643 2.87429 1.46441 2.95902 1.33053 3.05393C1.3729 2.9031 1.40848 2.76752 1.45085 2.63533C1.47119 2.57262 1.46272 2.53534 1.4051 2.49466C1.29494 2.4184 1.18986 2.33366 1.06445 2.23876C1.23054 2.23876 1.37628 2.23706 1.52203 2.24045C1.57287 2.24215 1.5966 2.2269 1.61185 2.17775C1.65422 2.03878 1.70337 1.90151 1.75591 1.7439C1.80675 1.89642 1.8542 2.02692 1.89318 2.15911C1.91182 2.21842 1.93724 2.24384 2.00334 2.24045C2.14231 2.23368 2.28297 2.23876 2.44566 2.23876C2.31517 2.33705 2.2067 2.42349 2.09316 2.50483C2.05079 2.53534 2.03893 2.56245 2.05587 2.61499C2.10333 2.75396 2.13892 2.89632 2.18467 3.05393Z" fill="#FEFDFE"/>
<path id="Vector_27" d="M1.15933 0.613515C1.02883 0.71181 0.920371 0.799936 0.806824 0.879589C0.761066 0.911789 0.755982 0.942294 0.771234 0.991441C0.813603 1.12702 0.850887 1.26599 0.896645 1.42529C0.764455 1.33208 0.647518 1.25413 0.535666 1.16769C0.486519 1.13041 0.452624 1.1338 0.405171 1.16939C0.293319 1.25413 0.176382 1.33378 0.0458872 1.42699C0.0882556 1.27107 0.123845 1.1321 0.167908 0.994831C0.184856 0.940599 0.179771 0.910094 0.130624 0.876199C0.0187714 0.796547 -0.0896917 0.710115 -0.216797 0.613515C-0.0574917 0.613515 0.0780872 0.610126 0.215361 0.61521C0.281455 0.618599 0.31535 0.601652 0.333992 0.533863C0.372971 0.399978 0.422119 0.267789 0.472961 0.118652C0.527192 0.276263 0.574645 0.415231 0.620403 0.555894C0.63396 0.601652 0.655992 0.61521 0.703445 0.61521C0.845803 0.610126 0.99155 0.613515 1.15933 0.613515Z" fill="#FEFDFE"/>
<path id="Vector_28" d="M6.31162 3.86744C6.18282 3.96404 6.07605 4.05047 5.96419 4.13012C5.91844 4.16232 5.90318 4.18944 5.92183 4.24706C5.96758 4.38602 6.00317 4.52669 6.04724 4.6826C5.91674 4.58939 5.79642 4.50635 5.67948 4.41992C5.63542 4.38772 5.60661 4.38772 5.56254 4.41992C5.44561 4.50805 5.32528 4.58939 5.19478 4.68091C5.23885 4.52669 5.27274 4.38602 5.3185 4.24706C5.33884 4.18774 5.32019 4.16062 5.27613 4.12842C5.16428 4.04708 5.05751 3.96404 4.92871 3.86574C5.09649 3.86574 5.24054 3.86405 5.38629 3.86744C5.43713 3.86913 5.46086 3.85557 5.47611 3.80473C5.51678 3.66746 5.56593 3.53357 5.62016 3.37427C5.66931 3.51663 5.71507 3.63526 5.74896 3.75728C5.771 3.84032 5.80489 3.87591 5.8981 3.86913C6.02521 3.85896 6.1557 3.86744 6.31162 3.86744Z" fill="#FEFDFE"/>
<path id="Vector_29" d="M2.35596 0.613501C2.51865 0.613501 2.65423 0.610112 2.78811 0.615196C2.85421 0.618585 2.8881 0.599943 2.90675 0.532154C2.94573 0.39827 2.99318 0.267775 3.04402 0.116943C3.09656 0.274554 3.1457 0.410133 3.18807 0.549101C3.20332 0.598248 3.22366 0.615196 3.2762 0.613501C3.42025 0.610112 3.5643 0.611806 3.73208 0.611806C3.62192 0.696543 3.5321 0.774501 3.43211 0.837206C3.34399 0.893132 3.32196 0.949059 3.36094 1.04905C3.405 1.1626 3.43211 1.28462 3.47109 1.42528C3.34229 1.33376 3.22875 1.2575 3.12028 1.17276C3.06436 1.1287 3.02368 1.1304 2.96776 1.17446C2.85929 1.2592 2.74405 1.33546 2.61864 1.42528C2.6627 1.26767 2.69999 1.12531 2.74405 0.984648C2.7593 0.935501 2.75083 0.908385 2.70846 0.879575C2.59661 0.798227 2.48645 0.711796 2.35596 0.613501Z" fill="#FEFDFE"/>
<path id="Vector_30" d="M6.30969 0.611792C6.1792 0.711781 6.06734 0.796518 5.95549 0.87956C5.91651 0.908371 5.90126 0.932097 5.91821 0.982939C5.96396 1.1236 6.00125 1.26765 6.04531 1.42526C5.91143 1.33036 5.78941 1.24562 5.67078 1.1575C5.6318 1.12869 5.60638 1.13038 5.5674 1.1575C5.44876 1.24562 5.32674 1.33036 5.19286 1.42526C5.23692 1.26765 5.27421 1.1236 5.31997 0.982939C5.33691 0.932097 5.32166 0.906676 5.28268 0.877865C5.17083 0.794823 5.06067 0.710087 4.93018 0.610097C5.07931 0.610097 5.20811 0.605013 5.33691 0.611792C5.42165 0.616876 5.46741 0.598234 5.48944 0.505024C5.51994 0.381308 5.56909 0.260982 5.61993 0.115234C5.66908 0.262676 5.71653 0.386392 5.75212 0.513497C5.77246 0.588066 5.80466 0.616876 5.88601 0.611792C6.0165 0.606708 6.15039 0.611792 6.30969 0.611792Z" fill="#FEFDFE"/>
<path id="Vector_31" d="M4.33205 1.74561C4.38628 1.90322 4.43373 2.0371 4.47441 2.17268C4.48966 2.22522 4.51339 2.24216 4.56762 2.24047C4.70997 2.23538 4.85403 2.23877 5.02011 2.23877C4.88962 2.33876 4.77776 2.42519 4.66252 2.50824C4.62185 2.53705 4.61168 2.56416 4.62863 2.61331C4.66252 2.71499 4.68794 2.81837 4.71675 2.92175C4.72353 2.94887 4.73031 2.98615 4.70997 3.0014C4.68286 3.02174 4.66083 2.98615 4.6388 2.9709C4.55406 2.91158 4.46763 2.85227 4.38459 2.78956C4.34561 2.75906 4.3168 2.75567 4.27443 2.78787C4.15749 2.87599 4.03716 2.95734 3.90159 3.05394C3.94395 2.90142 3.97954 2.76245 4.02361 2.62687C4.04225 2.56925 4.03547 2.53705 3.98463 2.50146C3.87278 2.4235 3.76431 2.33707 3.63721 2.24047C3.79821 2.24047 3.93718 2.23708 4.07614 2.24216C4.14054 2.24386 4.17105 2.22691 4.18969 2.16421C4.23375 2.03032 4.28121 1.89983 4.33205 1.74561Z" fill="#FEFDFE"/>
<path id="Vector_32" d="M7.33337 3.05564C7.20118 2.96243 7.08594 2.88277 6.97239 2.79804C6.92494 2.76245 6.89274 2.75567 6.8419 2.79634C6.72835 2.88447 6.60972 2.96243 6.47753 3.05564C6.5199 2.90819 6.55549 2.776 6.59785 2.64551C6.61989 2.57772 6.6148 2.53535 6.54871 2.49298C6.43855 2.42181 6.33856 2.33707 6.21484 2.24216C6.37754 2.24216 6.51651 2.23708 6.65717 2.24386C6.72496 2.24725 6.75038 2.22183 6.76733 2.16251C6.80631 2.03202 6.85206 1.90322 6.9046 1.74561C6.95714 1.90152 7.0029 2.03202 7.04357 2.16421C7.06221 2.22522 7.09102 2.24555 7.15712 2.24386C7.29439 2.23708 7.43336 2.24216 7.59436 2.24216C7.47234 2.33537 7.36896 2.42011 7.2588 2.49468C7.20118 2.53535 7.18762 2.57264 7.20965 2.64043C7.25541 2.76923 7.28931 2.90311 7.33337 3.05564Z" fill="#FEFDFE"/>
<path id="Vector_33" d="M1.35243 6.29583C1.34734 6.29583 1.34226 6.29583 1.33887 6.29583C1.34056 6.29244 1.34395 6.29074 1.34565 6.28735C1.34734 6.29074 1.35073 6.29413 1.35243 6.29752C1.35243 6.29922 1.35243 6.29583 1.35243 6.29583Z" fill="#FEFDFE"/>
<path id="Vector_34" d="M0.0614379 7.91772C0.0580485 7.91942 0.054659 7.92281 0.0512695 7.9245C0.0512695 7.92281 0.0512695 7.91942 0.0512695 7.91772C0.054659 7.91772 0.0580485 7.91942 0.0631327 7.91942L0.0614379 7.91772Z" fill="#FEFDFE"/>
</g>
</g>
</g>
</g>
</svg>
